<mxfile host="app.diagrams.net" agent="Mozilla/5.0 (Windows NT 10.0; Win64; x64) AppleWebKit/537.36 (KHTML, like Gecko) Chrome/140.0.0.0 Safari/537.36 Edg/140.0.0.0" version="28.2.5">
  <diagram name="第 1 页" id="o7dgnYHn_86ZNCyRWwJ7">
    <mxGraphModel dx="1418" dy="2078" grid="1" gridSize="10" guides="1" tooltips="1" connect="1" arrows="1" fold="1" page="1" pageScale="1" pageWidth="827" pageHeight="1169" math="0" shadow="0">
      <root>
        <mxCell id="0" />
        <mxCell id="1" parent="0" />
        <mxCell id="hgz1I2AFEg-eC-I6rhA0-1" value="" style="shape=table;startSize=0;container=1;collapsible=0;childLayout=tableLayout;fontSize=16;fillColor=#dae8fc;strokeColor=#6c8ebf;" vertex="1" parent="1">
          <mxGeometry x="240" y="120" width="160" height="280" as="geometry" />
        </mxCell>
        <mxCell id="hgz1I2AFEg-eC-I6rhA0-26" style="shape=tableRow;horizontal=0;startSize=0;swimlaneHead=0;swimlaneBody=0;strokeColor=inherit;top=0;left=0;bottom=0;right=0;collapsible=0;dropTarget=0;fillColor=none;points=[[0,0.5],[1,0.5]];portConstraint=eastwest;fontSize=16;" vertex="1" parent="hgz1I2AFEg-eC-I6rhA0-1">
          <mxGeometry width="160" height="40" as="geometry" />
        </mxCell>
        <mxCell id="hgz1I2AFEg-eC-I6rhA0-27" value="进程文件表" style="shape=partialRectangle;html=1;whiteSpace=wrap;connectable=0;strokeColor=inherit;overflow=hidden;fillColor=none;top=0;left=0;bottom=0;right=0;pointerEvents=1;fontSize=16;rowspan=1;colspan=3;" vertex="1" parent="hgz1I2AFEg-eC-I6rhA0-26">
          <mxGeometry width="160" height="40" as="geometry">
            <mxRectangle width="54" height="40" as="alternateBounds" />
          </mxGeometry>
        </mxCell>
        <mxCell id="hgz1I2AFEg-eC-I6rhA0-28" style="shape=partialRectangle;html=1;whiteSpace=wrap;connectable=0;strokeColor=inherit;overflow=hidden;fillColor=none;top=0;left=0;bottom=0;right=0;pointerEvents=1;fontSize=16;" vertex="1" visible="0" parent="hgz1I2AFEg-eC-I6rhA0-26">
          <mxGeometry x="54" width="52" height="40" as="geometry">
            <mxRectangle width="52" height="40" as="alternateBounds" />
          </mxGeometry>
        </mxCell>
        <mxCell id="hgz1I2AFEg-eC-I6rhA0-29" style="shape=partialRectangle;html=1;whiteSpace=wrap;connectable=0;strokeColor=inherit;overflow=hidden;fillColor=none;top=0;left=0;bottom=0;right=0;pointerEvents=1;fontSize=16;" vertex="1" visible="0" parent="hgz1I2AFEg-eC-I6rhA0-26">
          <mxGeometry x="106" width="54" height="40" as="geometry">
            <mxRectangle width="54" height="40" as="alternateBounds" />
          </mxGeometry>
        </mxCell>
        <mxCell id="hgz1I2AFEg-eC-I6rhA0-2" value="" style="shape=tableRow;horizontal=0;startSize=0;swimlaneHead=0;swimlaneBody=0;strokeColor=inherit;top=0;left=0;bottom=0;right=0;collapsible=0;dropTarget=0;fillColor=none;points=[[0,0.5],[1,0.5]];portConstraint=eastwest;fontSize=16;" vertex="1" parent="hgz1I2AFEg-eC-I6rhA0-1">
          <mxGeometry y="40" width="160" height="41" as="geometry" />
        </mxCell>
        <mxCell id="hgz1I2AFEg-eC-I6rhA0-3" value="下标" style="shape=partialRectangle;html=1;whiteSpace=wrap;connectable=0;strokeColor=inherit;overflow=hidden;fillColor=none;top=0;left=0;bottom=0;right=0;pointerEvents=1;fontSize=16;" vertex="1" parent="hgz1I2AFEg-eC-I6rhA0-2">
          <mxGeometry width="54" height="41" as="geometry">
            <mxRectangle width="54" height="41" as="alternateBounds" />
          </mxGeometry>
        </mxCell>
        <mxCell id="hgz1I2AFEg-eC-I6rhA0-4" value="文件指针" style="shape=partialRectangle;html=1;whiteSpace=wrap;connectable=0;strokeColor=inherit;overflow=hidden;fillColor=none;top=0;left=0;bottom=0;right=0;pointerEvents=1;fontSize=16;rowspan=1;colspan=2;" vertex="1" parent="hgz1I2AFEg-eC-I6rhA0-2">
          <mxGeometry x="54" width="106" height="41" as="geometry">
            <mxRectangle width="52" height="41" as="alternateBounds" />
          </mxGeometry>
        </mxCell>
        <mxCell id="hgz1I2AFEg-eC-I6rhA0-5" value="" style="shape=partialRectangle;html=1;whiteSpace=wrap;connectable=0;strokeColor=inherit;overflow=hidden;fillColor=none;top=0;left=0;bottom=0;right=0;pointerEvents=1;fontSize=16;" vertex="1" visible="0" parent="hgz1I2AFEg-eC-I6rhA0-2">
          <mxGeometry x="106" width="54" height="41" as="geometry">
            <mxRectangle width="54" height="41" as="alternateBounds" />
          </mxGeometry>
        </mxCell>
        <mxCell id="hgz1I2AFEg-eC-I6rhA0-6" value="" style="shape=tableRow;horizontal=0;startSize=0;swimlaneHead=0;swimlaneBody=0;strokeColor=inherit;top=0;left=0;bottom=0;right=0;collapsible=0;dropTarget=0;fillColor=none;points=[[0,0.5],[1,0.5]];portConstraint=eastwest;fontSize=16;" vertex="1" parent="hgz1I2AFEg-eC-I6rhA0-1">
          <mxGeometry y="81" width="160" height="39" as="geometry" />
        </mxCell>
        <mxCell id="hgz1I2AFEg-eC-I6rhA0-7" value="fd 0" style="shape=partialRectangle;html=1;whiteSpace=wrap;connectable=0;strokeColor=inherit;overflow=hidden;fillColor=none;top=0;left=0;bottom=0;right=0;pointerEvents=1;fontSize=16;" vertex="1" parent="hgz1I2AFEg-eC-I6rhA0-6">
          <mxGeometry width="54" height="39" as="geometry">
            <mxRectangle width="54" height="39" as="alternateBounds" />
          </mxGeometry>
        </mxCell>
        <mxCell id="hgz1I2AFEg-eC-I6rhA0-8" value="ptr" style="shape=partialRectangle;html=1;whiteSpace=wrap;connectable=0;strokeColor=inherit;overflow=hidden;fillColor=none;top=0;left=0;bottom=0;right=0;pointerEvents=1;fontSize=16;rowspan=1;colspan=2;" vertex="1" parent="hgz1I2AFEg-eC-I6rhA0-6">
          <mxGeometry x="54" width="106" height="39" as="geometry">
            <mxRectangle width="52" height="39" as="alternateBounds" />
          </mxGeometry>
        </mxCell>
        <mxCell id="hgz1I2AFEg-eC-I6rhA0-9" value="" style="shape=partialRectangle;html=1;whiteSpace=wrap;connectable=0;strokeColor=inherit;overflow=hidden;fillColor=none;top=0;left=0;bottom=0;right=0;pointerEvents=1;fontSize=16;" vertex="1" visible="0" parent="hgz1I2AFEg-eC-I6rhA0-6">
          <mxGeometry x="106" width="54" height="39" as="geometry">
            <mxRectangle width="54" height="39" as="alternateBounds" />
          </mxGeometry>
        </mxCell>
        <mxCell id="hgz1I2AFEg-eC-I6rhA0-10" value="" style="shape=tableRow;horizontal=0;startSize=0;swimlaneHead=0;swimlaneBody=0;strokeColor=inherit;top=0;left=0;bottom=0;right=0;collapsible=0;dropTarget=0;fillColor=none;points=[[0,0.5],[1,0.5]];portConstraint=eastwest;fontSize=16;" vertex="1" parent="hgz1I2AFEg-eC-I6rhA0-1">
          <mxGeometry y="120" width="160" height="40" as="geometry" />
        </mxCell>
        <mxCell id="hgz1I2AFEg-eC-I6rhA0-11" value="fd 1" style="shape=partialRectangle;html=1;whiteSpace=wrap;connectable=0;strokeColor=inherit;overflow=hidden;fillColor=none;top=0;left=0;bottom=0;right=0;pointerEvents=1;fontSize=16;" vertex="1" parent="hgz1I2AFEg-eC-I6rhA0-10">
          <mxGeometry width="54" height="40" as="geometry">
            <mxRectangle width="54" height="40" as="alternateBounds" />
          </mxGeometry>
        </mxCell>
        <mxCell id="hgz1I2AFEg-eC-I6rhA0-12" value="ptr" style="shape=partialRectangle;html=1;whiteSpace=wrap;connectable=0;strokeColor=inherit;overflow=hidden;fillColor=none;top=0;left=0;bottom=0;right=0;pointerEvents=1;fontSize=16;rowspan=1;colspan=2;" vertex="1" parent="hgz1I2AFEg-eC-I6rhA0-10">
          <mxGeometry x="54" width="106" height="40" as="geometry">
            <mxRectangle width="52" height="40" as="alternateBounds" />
          </mxGeometry>
        </mxCell>
        <mxCell id="hgz1I2AFEg-eC-I6rhA0-13" value="" style="shape=partialRectangle;html=1;whiteSpace=wrap;connectable=0;strokeColor=inherit;overflow=hidden;fillColor=none;top=0;left=0;bottom=0;right=0;pointerEvents=1;fontSize=16;" vertex="1" visible="0" parent="hgz1I2AFEg-eC-I6rhA0-10">
          <mxGeometry x="106" width="54" height="40" as="geometry">
            <mxRectangle width="54" height="40" as="alternateBounds" />
          </mxGeometry>
        </mxCell>
        <mxCell id="hgz1I2AFEg-eC-I6rhA0-14" style="shape=tableRow;horizontal=0;startSize=0;swimlaneHead=0;swimlaneBody=0;strokeColor=inherit;top=0;left=0;bottom=0;right=0;collapsible=0;dropTarget=0;fillColor=none;points=[[0,0.5],[1,0.5]];portConstraint=eastwest;fontSize=16;" vertex="1" parent="hgz1I2AFEg-eC-I6rhA0-1">
          <mxGeometry y="160" width="160" height="39" as="geometry" />
        </mxCell>
        <mxCell id="hgz1I2AFEg-eC-I6rhA0-15" value="fd 2" style="shape=partialRectangle;html=1;whiteSpace=wrap;connectable=0;strokeColor=inherit;overflow=hidden;fillColor=none;top=0;left=0;bottom=0;right=0;pointerEvents=1;fontSize=16;" vertex="1" parent="hgz1I2AFEg-eC-I6rhA0-14">
          <mxGeometry width="54" height="39" as="geometry">
            <mxRectangle width="54" height="39" as="alternateBounds" />
          </mxGeometry>
        </mxCell>
        <mxCell id="hgz1I2AFEg-eC-I6rhA0-16" value="ptr" style="shape=partialRectangle;html=1;whiteSpace=wrap;connectable=0;strokeColor=inherit;overflow=hidden;fillColor=none;top=0;left=0;bottom=0;right=0;pointerEvents=1;fontSize=16;rowspan=1;colspan=2;" vertex="1" parent="hgz1I2AFEg-eC-I6rhA0-14">
          <mxGeometry x="54" width="106" height="39" as="geometry">
            <mxRectangle width="52" height="39" as="alternateBounds" />
          </mxGeometry>
        </mxCell>
        <mxCell id="hgz1I2AFEg-eC-I6rhA0-17" style="shape=partialRectangle;html=1;whiteSpace=wrap;connectable=0;strokeColor=inherit;overflow=hidden;fillColor=none;top=0;left=0;bottom=0;right=0;pointerEvents=1;fontSize=16;" vertex="1" visible="0" parent="hgz1I2AFEg-eC-I6rhA0-14">
          <mxGeometry x="106" width="54" height="39" as="geometry">
            <mxRectangle width="54" height="39" as="alternateBounds" />
          </mxGeometry>
        </mxCell>
        <mxCell id="hgz1I2AFEg-eC-I6rhA0-18" style="shape=tableRow;horizontal=0;startSize=0;swimlaneHead=0;swimlaneBody=0;strokeColor=inherit;top=0;left=0;bottom=0;right=0;collapsible=0;dropTarget=0;fillColor=none;points=[[0,0.5],[1,0.5]];portConstraint=eastwest;fontSize=16;" vertex="1" parent="hgz1I2AFEg-eC-I6rhA0-1">
          <mxGeometry y="199" width="160" height="41" as="geometry" />
        </mxCell>
        <mxCell id="hgz1I2AFEg-eC-I6rhA0-19" value="fd 3" style="shape=partialRectangle;html=1;whiteSpace=wrap;connectable=0;strokeColor=inherit;overflow=hidden;fillColor=none;top=0;left=0;bottom=0;right=0;pointerEvents=1;fontSize=16;" vertex="1" parent="hgz1I2AFEg-eC-I6rhA0-18">
          <mxGeometry width="54" height="41" as="geometry">
            <mxRectangle width="54" height="41" as="alternateBounds" />
          </mxGeometry>
        </mxCell>
        <mxCell id="hgz1I2AFEg-eC-I6rhA0-20" value="ptr" style="shape=partialRectangle;html=1;whiteSpace=wrap;connectable=0;strokeColor=inherit;overflow=hidden;fillColor=none;top=0;left=0;bottom=0;right=0;pointerEvents=1;fontSize=16;rowspan=1;colspan=2;" vertex="1" parent="hgz1I2AFEg-eC-I6rhA0-18">
          <mxGeometry x="54" width="106" height="41" as="geometry">
            <mxRectangle width="52" height="41" as="alternateBounds" />
          </mxGeometry>
        </mxCell>
        <mxCell id="hgz1I2AFEg-eC-I6rhA0-21" style="shape=partialRectangle;html=1;whiteSpace=wrap;connectable=0;strokeColor=inherit;overflow=hidden;fillColor=none;top=0;left=0;bottom=0;right=0;pointerEvents=1;fontSize=16;" vertex="1" visible="0" parent="hgz1I2AFEg-eC-I6rhA0-18">
          <mxGeometry x="106" width="54" height="41" as="geometry">
            <mxRectangle width="54" height="41" as="alternateBounds" />
          </mxGeometry>
        </mxCell>
        <mxCell id="hgz1I2AFEg-eC-I6rhA0-22" style="shape=tableRow;horizontal=0;startSize=0;swimlaneHead=0;swimlaneBody=0;strokeColor=inherit;top=0;left=0;bottom=0;right=0;collapsible=0;dropTarget=0;fillColor=none;points=[[0,0.5],[1,0.5]];portConstraint=eastwest;fontSize=16;" vertex="1" parent="hgz1I2AFEg-eC-I6rhA0-1">
          <mxGeometry y="240" width="160" height="40" as="geometry" />
        </mxCell>
        <mxCell id="hgz1I2AFEg-eC-I6rhA0-23" value="..." style="shape=partialRectangle;html=1;whiteSpace=wrap;connectable=0;strokeColor=inherit;overflow=hidden;fillColor=none;top=0;left=0;bottom=0;right=0;pointerEvents=1;fontSize=20;rowspan=1;colspan=3;" vertex="1" parent="hgz1I2AFEg-eC-I6rhA0-22">
          <mxGeometry width="160" height="40" as="geometry">
            <mxRectangle width="54" height="40" as="alternateBounds" />
          </mxGeometry>
        </mxCell>
        <mxCell id="hgz1I2AFEg-eC-I6rhA0-24" style="shape=partialRectangle;html=1;whiteSpace=wrap;connectable=0;strokeColor=inherit;overflow=hidden;fillColor=none;top=0;left=0;bottom=0;right=0;pointerEvents=1;fontSize=16;" vertex="1" visible="0" parent="hgz1I2AFEg-eC-I6rhA0-22">
          <mxGeometry x="54" width="52" height="40" as="geometry">
            <mxRectangle width="52" height="40" as="alternateBounds" />
          </mxGeometry>
        </mxCell>
        <mxCell id="hgz1I2AFEg-eC-I6rhA0-25" style="shape=partialRectangle;html=1;whiteSpace=wrap;connectable=0;strokeColor=inherit;overflow=hidden;fillColor=none;top=0;left=0;bottom=0;right=0;pointerEvents=1;fontSize=16;" vertex="1" visible="0" parent="hgz1I2AFEg-eC-I6rhA0-22">
          <mxGeometry x="106" width="54" height="40" as="geometry">
            <mxRectangle width="54" height="40" as="alternateBounds" />
          </mxGeometry>
        </mxCell>
        <mxCell id="hgz1I2AFEg-eC-I6rhA0-30" value="" style="shape=table;startSize=0;container=1;collapsible=0;childLayout=tableLayout;fontSize=16;fillColor=#d5e8d4;strokeColor=#82b366;" vertex="1" parent="1">
          <mxGeometry x="520" y="360" width="200" height="200" as="geometry" />
        </mxCell>
        <mxCell id="hgz1I2AFEg-eC-I6rhA0-52" style="shape=tableRow;horizontal=0;startSize=0;swimlaneHead=0;swimlaneBody=0;strokeColor=inherit;top=0;left=0;bottom=0;right=0;collapsible=0;dropTarget=0;fillColor=none;points=[[0,0.5],[1,0.5]];portConstraint=eastwest;fontSize=16;" vertex="1" parent="hgz1I2AFEg-eC-I6rhA0-30">
          <mxGeometry width="200" height="40" as="geometry" />
        </mxCell>
        <mxCell id="hgz1I2AFEg-eC-I6rhA0-53" value="文件表项(file_t)" style="shape=partialRectangle;html=1;whiteSpace=wrap;connectable=0;strokeColor=inherit;overflow=hidden;fillColor=none;top=0;left=0;bottom=0;right=0;pointerEvents=1;fontSize=16;rowspan=1;colspan=3;" vertex="1" parent="hgz1I2AFEg-eC-I6rhA0-52">
          <mxGeometry width="200" height="40" as="geometry">
            <mxRectangle width="69" height="40" as="alternateBounds" />
          </mxGeometry>
        </mxCell>
        <mxCell id="hgz1I2AFEg-eC-I6rhA0-54" style="shape=partialRectangle;html=1;whiteSpace=wrap;connectable=0;strokeColor=inherit;overflow=hidden;fillColor=none;top=0;left=0;bottom=0;right=0;pointerEvents=1;fontSize=16;" vertex="1" visible="0" parent="hgz1I2AFEg-eC-I6rhA0-52">
          <mxGeometry x="69" width="65" height="40" as="geometry">
            <mxRectangle width="65" height="40" as="alternateBounds" />
          </mxGeometry>
        </mxCell>
        <mxCell id="hgz1I2AFEg-eC-I6rhA0-55" style="shape=partialRectangle;html=1;whiteSpace=wrap;connectable=0;strokeColor=inherit;overflow=hidden;fillColor=none;top=0;left=0;bottom=0;right=0;pointerEvents=1;fontSize=16;" vertex="1" visible="0" parent="hgz1I2AFEg-eC-I6rhA0-52">
          <mxGeometry x="134" width="66" height="40" as="geometry">
            <mxRectangle width="66" height="40" as="alternateBounds" />
          </mxGeometry>
        </mxCell>
        <mxCell id="hgz1I2AFEg-eC-I6rhA0-31" value="" style="shape=tableRow;horizontal=0;startSize=0;swimlaneHead=0;swimlaneBody=0;strokeColor=inherit;top=0;left=0;bottom=0;right=0;collapsible=0;dropTarget=0;fillColor=none;points=[[0,0.5],[1,0.5]];portConstraint=eastwest;fontSize=16;" vertex="1" parent="hgz1I2AFEg-eC-I6rhA0-30">
          <mxGeometry y="40" width="200" height="40" as="geometry" />
        </mxCell>
        <mxCell id="hgz1I2AFEg-eC-I6rhA0-32" value="inode proxy ptr" style="shape=partialRectangle;html=1;whiteSpace=wrap;connectable=0;strokeColor=inherit;overflow=hidden;fillColor=none;top=0;left=0;bottom=0;right=0;pointerEvents=1;fontSize=16;rowspan=1;colspan=3;" vertex="1" parent="hgz1I2AFEg-eC-I6rhA0-31">
          <mxGeometry width="200" height="40" as="geometry">
            <mxRectangle width="69" height="40" as="alternateBounds" />
          </mxGeometry>
        </mxCell>
        <mxCell id="hgz1I2AFEg-eC-I6rhA0-33" value="" style="shape=partialRectangle;html=1;whiteSpace=wrap;connectable=0;strokeColor=inherit;overflow=hidden;fillColor=none;top=0;left=0;bottom=0;right=0;pointerEvents=1;fontSize=16;" vertex="1" visible="0" parent="hgz1I2AFEg-eC-I6rhA0-31">
          <mxGeometry x="69" width="65" height="40" as="geometry">
            <mxRectangle width="65" height="40" as="alternateBounds" />
          </mxGeometry>
        </mxCell>
        <mxCell id="hgz1I2AFEg-eC-I6rhA0-34" value="" style="shape=partialRectangle;html=1;whiteSpace=wrap;connectable=0;strokeColor=inherit;overflow=hidden;fillColor=none;top=0;left=0;bottom=0;right=0;pointerEvents=1;fontSize=16;" vertex="1" visible="0" parent="hgz1I2AFEg-eC-I6rhA0-31">
          <mxGeometry x="134" width="66" height="40" as="geometry">
            <mxRectangle width="66" height="40" as="alternateBounds" />
          </mxGeometry>
        </mxCell>
        <mxCell id="hgz1I2AFEg-eC-I6rhA0-35" value="" style="shape=tableRow;horizontal=0;startSize=0;swimlaneHead=0;swimlaneBody=0;strokeColor=inherit;top=0;left=0;bottom=0;right=0;collapsible=0;dropTarget=0;fillColor=none;points=[[0,0.5],[1,0.5]];portConstraint=eastwest;fontSize=16;" vertex="1" parent="hgz1I2AFEg-eC-I6rhA0-30">
          <mxGeometry y="80" width="200" height="40" as="geometry" />
        </mxCell>
        <mxCell id="hgz1I2AFEg-eC-I6rhA0-36" value="count" style="shape=partialRectangle;html=1;whiteSpace=wrap;connectable=0;strokeColor=inherit;overflow=hidden;fillColor=none;top=0;left=0;bottom=0;right=0;pointerEvents=1;fontSize=16;rowspan=1;colspan=3;" vertex="1" parent="hgz1I2AFEg-eC-I6rhA0-35">
          <mxGeometry width="200" height="40" as="geometry">
            <mxRectangle width="69" height="40" as="alternateBounds" />
          </mxGeometry>
        </mxCell>
        <mxCell id="hgz1I2AFEg-eC-I6rhA0-37" value="" style="shape=partialRectangle;html=1;whiteSpace=wrap;connectable=0;strokeColor=inherit;overflow=hidden;fillColor=none;top=0;left=0;bottom=0;right=0;pointerEvents=1;fontSize=16;" vertex="1" visible="0" parent="hgz1I2AFEg-eC-I6rhA0-35">
          <mxGeometry x="69" width="65" height="40" as="geometry">
            <mxRectangle width="65" height="40" as="alternateBounds" />
          </mxGeometry>
        </mxCell>
        <mxCell id="hgz1I2AFEg-eC-I6rhA0-38" value="" style="shape=partialRectangle;html=1;whiteSpace=wrap;connectable=0;strokeColor=inherit;overflow=hidden;fillColor=none;top=0;left=0;bottom=0;right=0;pointerEvents=1;fontSize=16;" vertex="1" visible="0" parent="hgz1I2AFEg-eC-I6rhA0-35">
          <mxGeometry x="134" width="66" height="40" as="geometry">
            <mxRectangle width="66" height="40" as="alternateBounds" />
          </mxGeometry>
        </mxCell>
        <mxCell id="hgz1I2AFEg-eC-I6rhA0-39" value="" style="shape=tableRow;horizontal=0;startSize=0;swimlaneHead=0;swimlaneBody=0;strokeColor=inherit;top=0;left=0;bottom=0;right=0;collapsible=0;dropTarget=0;fillColor=none;points=[[0,0.5],[1,0.5]];portConstraint=eastwest;fontSize=16;" vertex="1" parent="hgz1I2AFEg-eC-I6rhA0-30">
          <mxGeometry y="120" width="200" height="40" as="geometry" />
        </mxCell>
        <mxCell id="hgz1I2AFEg-eC-I6rhA0-40" value="offset" style="shape=partialRectangle;html=1;whiteSpace=wrap;connectable=0;strokeColor=inherit;overflow=hidden;fillColor=none;top=0;left=0;bottom=0;right=0;pointerEvents=1;fontSize=16;rowspan=1;colspan=3;" vertex="1" parent="hgz1I2AFEg-eC-I6rhA0-39">
          <mxGeometry width="200" height="40" as="geometry">
            <mxRectangle width="69" height="40" as="alternateBounds" />
          </mxGeometry>
        </mxCell>
        <mxCell id="hgz1I2AFEg-eC-I6rhA0-41" value="" style="shape=partialRectangle;html=1;whiteSpace=wrap;connectable=0;strokeColor=inherit;overflow=hidden;fillColor=none;top=0;left=0;bottom=0;right=0;pointerEvents=1;fontSize=16;" vertex="1" visible="0" parent="hgz1I2AFEg-eC-I6rhA0-39">
          <mxGeometry x="69" width="65" height="40" as="geometry">
            <mxRectangle width="65" height="40" as="alternateBounds" />
          </mxGeometry>
        </mxCell>
        <mxCell id="hgz1I2AFEg-eC-I6rhA0-42" value="" style="shape=partialRectangle;html=1;whiteSpace=wrap;connectable=0;strokeColor=inherit;overflow=hidden;fillColor=none;top=0;left=0;bottom=0;right=0;pointerEvents=1;fontSize=16;" vertex="1" visible="0" parent="hgz1I2AFEg-eC-I6rhA0-39">
          <mxGeometry x="134" width="66" height="40" as="geometry">
            <mxRectangle width="66" height="40" as="alternateBounds" />
          </mxGeometry>
        </mxCell>
        <mxCell id="hgz1I2AFEg-eC-I6rhA0-43" style="shape=tableRow;horizontal=0;startSize=0;swimlaneHead=0;swimlaneBody=0;strokeColor=inherit;top=0;left=0;bottom=0;right=0;collapsible=0;dropTarget=0;fillColor=none;points=[[0,0.5],[1,0.5]];portConstraint=eastwest;fontSize=16;" vertex="1" parent="hgz1I2AFEg-eC-I6rhA0-30">
          <mxGeometry y="160" width="200" height="40" as="geometry" />
        </mxCell>
        <mxCell id="hgz1I2AFEg-eC-I6rhA0-44" value="flags" style="shape=partialRectangle;html=1;whiteSpace=wrap;connectable=0;strokeColor=inherit;overflow=hidden;fillColor=none;top=0;left=0;bottom=0;right=0;pointerEvents=1;fontSize=16;rowspan=1;colspan=3;" vertex="1" parent="hgz1I2AFEg-eC-I6rhA0-43">
          <mxGeometry width="200" height="40" as="geometry">
            <mxRectangle width="69" height="40" as="alternateBounds" />
          </mxGeometry>
        </mxCell>
        <mxCell id="hgz1I2AFEg-eC-I6rhA0-45" style="shape=partialRectangle;html=1;whiteSpace=wrap;connectable=0;strokeColor=inherit;overflow=hidden;fillColor=none;top=0;left=0;bottom=0;right=0;pointerEvents=1;fontSize=16;" vertex="1" visible="0" parent="hgz1I2AFEg-eC-I6rhA0-43">
          <mxGeometry x="69" width="65" height="40" as="geometry">
            <mxRectangle width="65" height="40" as="alternateBounds" />
          </mxGeometry>
        </mxCell>
        <mxCell id="hgz1I2AFEg-eC-I6rhA0-46" style="shape=partialRectangle;html=1;whiteSpace=wrap;connectable=0;strokeColor=inherit;overflow=hidden;fillColor=none;top=0;left=0;bottom=0;right=0;pointerEvents=1;fontSize=16;" vertex="1" visible="0" parent="hgz1I2AFEg-eC-I6rhA0-43">
          <mxGeometry x="134" width="66" height="40" as="geometry">
            <mxRectangle width="66" height="40" as="alternateBounds" />
          </mxGeometry>
        </mxCell>
        <mxCell id="hgz1I2AFEg-eC-I6rhA0-47" value="" style="endArrow=classic;html=1;rounded=0;exitX=1;exitY=0.5;exitDx=0;exitDy=0;entryX=0;entryY=0.5;entryDx=0;entryDy=0;" edge="1" parent="1" source="hgz1I2AFEg-eC-I6rhA0-18" target="hgz1I2AFEg-eC-I6rhA0-52">
          <mxGeometry width="50" height="50" relative="1" as="geometry">
            <mxPoint x="630" y="480" as="sourcePoint" />
            <mxPoint x="510" y="290" as="targetPoint" />
          </mxGeometry>
        </mxCell>
        <mxCell id="hgz1I2AFEg-eC-I6rhA0-56" value="" style="shape=table;startSize=0;container=1;collapsible=0;childLayout=tableLayout;fontSize=16;fillColor=#ffe6cc;strokeColor=#d79b00;" vertex="1" parent="1">
          <mxGeometry x="800" y="480" width="200" height="280" as="geometry" />
        </mxCell>
        <mxCell id="hgz1I2AFEg-eC-I6rhA0-57" style="shape=tableRow;horizontal=0;startSize=0;swimlaneHead=0;swimlaneBody=0;strokeColor=inherit;top=0;left=0;bottom=0;right=0;collapsible=0;dropTarget=0;fillColor=none;points=[[0,0.5],[1,0.5]];portConstraint=eastwest;fontSize=16;" vertex="1" parent="hgz1I2AFEg-eC-I6rhA0-56">
          <mxGeometry width="200" height="40" as="geometry" />
        </mxCell>
        <mxCell id="hgz1I2AFEg-eC-I6rhA0-58" value="i节点代理(inode_t)" style="shape=partialRectangle;html=1;whiteSpace=wrap;connectable=0;strokeColor=inherit;overflow=hidden;fillColor=none;top=0;left=0;bottom=0;right=0;pointerEvents=1;fontSize=16;rowspan=1;colspan=3;align=center;" vertex="1" parent="hgz1I2AFEg-eC-I6rhA0-57">
          <mxGeometry width="200" height="40" as="geometry">
            <mxRectangle width="69" height="40" as="alternateBounds" />
          </mxGeometry>
        </mxCell>
        <mxCell id="hgz1I2AFEg-eC-I6rhA0-59" style="shape=partialRectangle;html=1;whiteSpace=wrap;connectable=0;strokeColor=inherit;overflow=hidden;fillColor=none;top=0;left=0;bottom=0;right=0;pointerEvents=1;fontSize=16;" vertex="1" visible="0" parent="hgz1I2AFEg-eC-I6rhA0-57">
          <mxGeometry x="69" width="65" height="40" as="geometry">
            <mxRectangle width="65" height="40" as="alternateBounds" />
          </mxGeometry>
        </mxCell>
        <mxCell id="hgz1I2AFEg-eC-I6rhA0-60" style="shape=partialRectangle;html=1;whiteSpace=wrap;connectable=0;strokeColor=inherit;overflow=hidden;fillColor=none;top=0;left=0;bottom=0;right=0;pointerEvents=1;fontSize=16;" vertex="1" visible="0" parent="hgz1I2AFEg-eC-I6rhA0-57">
          <mxGeometry x="134" width="66" height="40" as="geometry">
            <mxRectangle width="66" height="40" as="alternateBounds" />
          </mxGeometry>
        </mxCell>
        <mxCell id="hgz1I2AFEg-eC-I6rhA0-61" value="" style="shape=tableRow;horizontal=0;startSize=0;swimlaneHead=0;swimlaneBody=0;strokeColor=inherit;top=0;left=0;bottom=0;right=0;collapsible=0;dropTarget=0;fillColor=none;points=[[0,0.5],[1,0.5]];portConstraint=eastwest;fontSize=16;" vertex="1" parent="hgz1I2AFEg-eC-I6rhA0-56">
          <mxGeometry y="40" width="200" height="40" as="geometry" />
        </mxCell>
        <mxCell id="hgz1I2AFEg-eC-I6rhA0-62" value="buf" style="shape=partialRectangle;html=1;whiteSpace=wrap;connectable=0;strokeColor=inherit;overflow=hidden;fillColor=none;top=0;left=0;bottom=0;right=0;pointerEvents=1;fontSize=16;rowspan=1;colspan=3;" vertex="1" parent="hgz1I2AFEg-eC-I6rhA0-61">
          <mxGeometry width="200" height="40" as="geometry">
            <mxRectangle width="69" height="40" as="alternateBounds" />
          </mxGeometry>
        </mxCell>
        <mxCell id="hgz1I2AFEg-eC-I6rhA0-63" value="" style="shape=partialRectangle;html=1;whiteSpace=wrap;connectable=0;strokeColor=inherit;overflow=hidden;fillColor=none;top=0;left=0;bottom=0;right=0;pointerEvents=1;fontSize=16;" vertex="1" visible="0" parent="hgz1I2AFEg-eC-I6rhA0-61">
          <mxGeometry x="69" width="65" height="40" as="geometry">
            <mxRectangle width="65" height="40" as="alternateBounds" />
          </mxGeometry>
        </mxCell>
        <mxCell id="hgz1I2AFEg-eC-I6rhA0-64" value="" style="shape=partialRectangle;html=1;whiteSpace=wrap;connectable=0;strokeColor=inherit;overflow=hidden;fillColor=none;top=0;left=0;bottom=0;right=0;pointerEvents=1;fontSize=16;" vertex="1" visible="0" parent="hgz1I2AFEg-eC-I6rhA0-61">
          <mxGeometry x="134" width="66" height="40" as="geometry">
            <mxRectangle width="66" height="40" as="alternateBounds" />
          </mxGeometry>
        </mxCell>
        <mxCell id="hgz1I2AFEg-eC-I6rhA0-65" value="" style="shape=tableRow;horizontal=0;startSize=0;swimlaneHead=0;swimlaneBody=0;strokeColor=inherit;top=0;left=0;bottom=0;right=0;collapsible=0;dropTarget=0;fillColor=none;points=[[0,0.5],[1,0.5]];portConstraint=eastwest;fontSize=16;" vertex="1" parent="hgz1I2AFEg-eC-I6rhA0-56">
          <mxGeometry y="80" width="200" height="40" as="geometry" />
        </mxCell>
        <mxCell id="hgz1I2AFEg-eC-I6rhA0-66" value="desc" style="shape=partialRectangle;html=1;whiteSpace=wrap;connectable=0;strokeColor=inherit;overflow=hidden;fillColor=none;top=0;left=0;bottom=0;right=0;pointerEvents=1;fontSize=16;rowspan=1;colspan=3;" vertex="1" parent="hgz1I2AFEg-eC-I6rhA0-65">
          <mxGeometry width="200" height="40" as="geometry">
            <mxRectangle width="69" height="40" as="alternateBounds" />
          </mxGeometry>
        </mxCell>
        <mxCell id="hgz1I2AFEg-eC-I6rhA0-67" value="" style="shape=partialRectangle;html=1;whiteSpace=wrap;connectable=0;strokeColor=inherit;overflow=hidden;fillColor=none;top=0;left=0;bottom=0;right=0;pointerEvents=1;fontSize=16;" vertex="1" visible="0" parent="hgz1I2AFEg-eC-I6rhA0-65">
          <mxGeometry x="69" width="65" height="40" as="geometry">
            <mxRectangle width="65" height="40" as="alternateBounds" />
          </mxGeometry>
        </mxCell>
        <mxCell id="hgz1I2AFEg-eC-I6rhA0-68" value="" style="shape=partialRectangle;html=1;whiteSpace=wrap;connectable=0;strokeColor=inherit;overflow=hidden;fillColor=none;top=0;left=0;bottom=0;right=0;pointerEvents=1;fontSize=16;" vertex="1" visible="0" parent="hgz1I2AFEg-eC-I6rhA0-65">
          <mxGeometry x="134" width="66" height="40" as="geometry">
            <mxRectangle width="66" height="40" as="alternateBounds" />
          </mxGeometry>
        </mxCell>
        <mxCell id="hgz1I2AFEg-eC-I6rhA0-203" style="shape=tableRow;horizontal=0;startSize=0;swimlaneHead=0;swimlaneBody=0;strokeColor=inherit;top=0;left=0;bottom=0;right=0;collapsible=0;dropTarget=0;fillColor=none;points=[[0,0.5],[1,0.5]];portConstraint=eastwest;fontSize=16;" vertex="1" parent="hgz1I2AFEg-eC-I6rhA0-56">
          <mxGeometry y="120" width="200" height="40" as="geometry" />
        </mxCell>
        <mxCell id="hgz1I2AFEg-eC-I6rhA0-204" value="count" style="shape=partialRectangle;html=1;whiteSpace=wrap;connectable=0;strokeColor=inherit;overflow=hidden;fillColor=none;top=0;left=0;bottom=0;right=0;pointerEvents=1;fontSize=16;rowspan=1;colspan=3;" vertex="1" parent="hgz1I2AFEg-eC-I6rhA0-203">
          <mxGeometry width="200" height="40" as="geometry">
            <mxRectangle width="69" height="40" as="alternateBounds" />
          </mxGeometry>
        </mxCell>
        <mxCell id="hgz1I2AFEg-eC-I6rhA0-205" style="shape=partialRectangle;html=1;whiteSpace=wrap;connectable=0;strokeColor=inherit;overflow=hidden;fillColor=none;top=0;left=0;bottom=0;right=0;pointerEvents=1;fontSize=16;" vertex="1" visible="0" parent="hgz1I2AFEg-eC-I6rhA0-203">
          <mxGeometry x="69" width="65" height="40" as="geometry">
            <mxRectangle width="65" height="40" as="alternateBounds" />
          </mxGeometry>
        </mxCell>
        <mxCell id="hgz1I2AFEg-eC-I6rhA0-206" style="shape=partialRectangle;html=1;whiteSpace=wrap;connectable=0;strokeColor=inherit;overflow=hidden;fillColor=none;top=0;left=0;bottom=0;right=0;pointerEvents=1;fontSize=16;" vertex="1" visible="0" parent="hgz1I2AFEg-eC-I6rhA0-203">
          <mxGeometry x="134" width="66" height="40" as="geometry">
            <mxRectangle width="66" height="40" as="alternateBounds" />
          </mxGeometry>
        </mxCell>
        <mxCell id="hgz1I2AFEg-eC-I6rhA0-69" value="" style="shape=tableRow;horizontal=0;startSize=0;swimlaneHead=0;swimlaneBody=0;strokeColor=inherit;top=0;left=0;bottom=0;right=0;collapsible=0;dropTarget=0;fillColor=none;points=[[0,0.5],[1,0.5]];portConstraint=eastwest;fontSize=16;" vertex="1" parent="hgz1I2AFEg-eC-I6rhA0-56">
          <mxGeometry y="160" width="200" height="40" as="geometry" />
        </mxCell>
        <mxCell id="hgz1I2AFEg-eC-I6rhA0-70" value="..." style="shape=partialRectangle;html=1;whiteSpace=wrap;connectable=0;strokeColor=inherit;overflow=hidden;fillColor=none;top=0;left=0;bottom=0;right=0;pointerEvents=1;fontSize=20;rowspan=1;colspan=3;" vertex="1" parent="hgz1I2AFEg-eC-I6rhA0-69">
          <mxGeometry width="200" height="40" as="geometry">
            <mxRectangle width="69" height="40" as="alternateBounds" />
          </mxGeometry>
        </mxCell>
        <mxCell id="hgz1I2AFEg-eC-I6rhA0-71" value="" style="shape=partialRectangle;html=1;whiteSpace=wrap;connectable=0;strokeColor=inherit;overflow=hidden;fillColor=none;top=0;left=0;bottom=0;right=0;pointerEvents=1;fontSize=16;" vertex="1" visible="0" parent="hgz1I2AFEg-eC-I6rhA0-69">
          <mxGeometry x="69" width="65" height="40" as="geometry">
            <mxRectangle width="65" height="40" as="alternateBounds" />
          </mxGeometry>
        </mxCell>
        <mxCell id="hgz1I2AFEg-eC-I6rhA0-72" value="" style="shape=partialRectangle;html=1;whiteSpace=wrap;connectable=0;strokeColor=inherit;overflow=hidden;fillColor=none;top=0;left=0;bottom=0;right=0;pointerEvents=1;fontSize=16;" vertex="1" visible="0" parent="hgz1I2AFEg-eC-I6rhA0-69">
          <mxGeometry x="134" width="66" height="40" as="geometry">
            <mxRectangle width="66" height="40" as="alternateBounds" />
          </mxGeometry>
        </mxCell>
        <mxCell id="hgz1I2AFEg-eC-I6rhA0-73" style="shape=tableRow;horizontal=0;startSize=0;swimlaneHead=0;swimlaneBody=0;strokeColor=inherit;top=0;left=0;bottom=0;right=0;collapsible=0;dropTarget=0;fillColor=none;points=[[0,0.5],[1,0.5]];portConstraint=eastwest;fontSize=16;" vertex="1" parent="hgz1I2AFEg-eC-I6rhA0-56">
          <mxGeometry y="200" width="200" height="40" as="geometry" />
        </mxCell>
        <mxCell id="hgz1I2AFEg-eC-I6rhA0-74" value="type(FS_TYPE_MINIX)" style="shape=partialRectangle;html=1;whiteSpace=wrap;connectable=0;strokeColor=inherit;overflow=hidden;fillColor=none;top=0;left=0;bottom=0;right=0;pointerEvents=1;fontSize=16;rowspan=1;colspan=3;" vertex="1" parent="hgz1I2AFEg-eC-I6rhA0-73">
          <mxGeometry width="200" height="40" as="geometry">
            <mxRectangle width="69" height="40" as="alternateBounds" />
          </mxGeometry>
        </mxCell>
        <mxCell id="hgz1I2AFEg-eC-I6rhA0-75" style="shape=partialRectangle;html=1;whiteSpace=wrap;connectable=0;strokeColor=inherit;overflow=hidden;fillColor=none;top=0;left=0;bottom=0;right=0;pointerEvents=1;fontSize=16;" vertex="1" visible="0" parent="hgz1I2AFEg-eC-I6rhA0-73">
          <mxGeometry x="69" width="65" height="40" as="geometry">
            <mxRectangle width="65" height="40" as="alternateBounds" />
          </mxGeometry>
        </mxCell>
        <mxCell id="hgz1I2AFEg-eC-I6rhA0-76" style="shape=partialRectangle;html=1;whiteSpace=wrap;connectable=0;strokeColor=inherit;overflow=hidden;fillColor=none;top=0;left=0;bottom=0;right=0;pointerEvents=1;fontSize=16;" vertex="1" visible="0" parent="hgz1I2AFEg-eC-I6rhA0-73">
          <mxGeometry x="134" width="66" height="40" as="geometry">
            <mxRectangle width="66" height="40" as="alternateBounds" />
          </mxGeometry>
        </mxCell>
        <mxCell id="hgz1I2AFEg-eC-I6rhA0-81" style="shape=tableRow;horizontal=0;startSize=0;swimlaneHead=0;swimlaneBody=0;strokeColor=inherit;top=0;left=0;bottom=0;right=0;collapsible=0;dropTarget=0;fillColor=none;points=[[0,0.5],[1,0.5]];portConstraint=eastwest;fontSize=16;" vertex="1" parent="hgz1I2AFEg-eC-I6rhA0-56">
          <mxGeometry y="240" width="200" height="40" as="geometry" />
        </mxCell>
        <mxCell id="hgz1I2AFEg-eC-I6rhA0-82" value="op" style="shape=partialRectangle;html=1;whiteSpace=wrap;connectable=0;strokeColor=inherit;overflow=hidden;fillColor=none;top=0;left=0;bottom=0;right=0;pointerEvents=1;fontSize=16;rowspan=1;colspan=3;" vertex="1" parent="hgz1I2AFEg-eC-I6rhA0-81">
          <mxGeometry width="200" height="40" as="geometry">
            <mxRectangle width="69" height="40" as="alternateBounds" />
          </mxGeometry>
        </mxCell>
        <mxCell id="hgz1I2AFEg-eC-I6rhA0-83" style="shape=partialRectangle;html=1;whiteSpace=wrap;connectable=0;strokeColor=inherit;overflow=hidden;fillColor=none;top=0;left=0;bottom=0;right=0;pointerEvents=1;fontSize=16;" vertex="1" visible="0" parent="hgz1I2AFEg-eC-I6rhA0-81">
          <mxGeometry x="69" width="65" height="40" as="geometry">
            <mxRectangle width="65" height="40" as="alternateBounds" />
          </mxGeometry>
        </mxCell>
        <mxCell id="hgz1I2AFEg-eC-I6rhA0-84" style="shape=partialRectangle;html=1;whiteSpace=wrap;connectable=0;strokeColor=inherit;overflow=hidden;fillColor=none;top=0;left=0;bottom=0;right=0;pointerEvents=1;fontSize=16;" vertex="1" visible="0" parent="hgz1I2AFEg-eC-I6rhA0-81">
          <mxGeometry x="134" width="66" height="40" as="geometry">
            <mxRectangle width="66" height="40" as="alternateBounds" />
          </mxGeometry>
        </mxCell>
        <mxCell id="hgz1I2AFEg-eC-I6rhA0-85" value="" style="endArrow=classic;html=1;rounded=0;entryX=0;entryY=0.5;entryDx=0;entryDy=0;exitX=1;exitY=0.5;exitDx=0;exitDy=0;" edge="1" parent="1" source="hgz1I2AFEg-eC-I6rhA0-31" target="hgz1I2AFEg-eC-I6rhA0-57">
          <mxGeometry width="50" height="50" relative="1" as="geometry">
            <mxPoint x="660" y="350" as="sourcePoint" />
            <mxPoint x="670" y="390" as="targetPoint" />
          </mxGeometry>
        </mxCell>
        <mxCell id="hgz1I2AFEg-eC-I6rhA0-87" value="" style="shape=table;startSize=0;container=1;collapsible=0;childLayout=tableLayout;fontSize=16;fillColor=#d5e8d4;strokeColor=#82b366;" vertex="1" parent="1">
          <mxGeometry x="520" y="-10" width="200" height="80" as="geometry" />
        </mxCell>
        <mxCell id="hgz1I2AFEg-eC-I6rhA0-88" value="" style="shape=tableRow;horizontal=0;startSize=0;swimlaneHead=0;swimlaneBody=0;strokeColor=inherit;top=0;left=0;bottom=0;right=0;collapsible=0;dropTarget=0;fillColor=none;points=[[0,0.5],[1,0.5]];portConstraint=eastwest;fontSize=16;" vertex="1" parent="hgz1I2AFEg-eC-I6rhA0-87">
          <mxGeometry width="200" height="40" as="geometry" />
        </mxCell>
        <mxCell id="hgz1I2AFEg-eC-I6rhA0-89" value="文件表项(file_t)" style="shape=partialRectangle;html=1;whiteSpace=wrap;connectable=0;strokeColor=inherit;overflow=hidden;fillColor=none;top=0;left=0;bottom=0;right=0;pointerEvents=1;fontSize=16;rowspan=1;colspan=3;" vertex="1" parent="hgz1I2AFEg-eC-I6rhA0-88">
          <mxGeometry width="200" height="40" as="geometry">
            <mxRectangle width="67" height="40" as="alternateBounds" />
          </mxGeometry>
        </mxCell>
        <mxCell id="hgz1I2AFEg-eC-I6rhA0-90" value="" style="shape=partialRectangle;html=1;whiteSpace=wrap;connectable=0;strokeColor=inherit;overflow=hidden;fillColor=none;top=0;left=0;bottom=0;right=0;pointerEvents=1;fontSize=16;" vertex="1" visible="0" parent="hgz1I2AFEg-eC-I6rhA0-88">
          <mxGeometry x="67" width="66" height="40" as="geometry">
            <mxRectangle width="66" height="40" as="alternateBounds" />
          </mxGeometry>
        </mxCell>
        <mxCell id="hgz1I2AFEg-eC-I6rhA0-91" value="" style="shape=partialRectangle;html=1;whiteSpace=wrap;connectable=0;strokeColor=inherit;overflow=hidden;fillColor=none;top=0;left=0;bottom=0;right=0;pointerEvents=1;fontSize=16;" vertex="1" visible="0" parent="hgz1I2AFEg-eC-I6rhA0-88">
          <mxGeometry x="133" width="67" height="40" as="geometry">
            <mxRectangle width="67" height="40" as="alternateBounds" />
          </mxGeometry>
        </mxCell>
        <mxCell id="hgz1I2AFEg-eC-I6rhA0-92" value="" style="shape=tableRow;horizontal=0;startSize=0;swimlaneHead=0;swimlaneBody=0;strokeColor=inherit;top=0;left=0;bottom=0;right=0;collapsible=0;dropTarget=0;fillColor=none;points=[[0,0.5],[1,0.5]];portConstraint=eastwest;fontSize=16;" vertex="1" parent="hgz1I2AFEg-eC-I6rhA0-87">
          <mxGeometry y="40" width="200" height="40" as="geometry" />
        </mxCell>
        <mxCell id="hgz1I2AFEg-eC-I6rhA0-93" value="&lt;font style=&quot;font-size: 20px;&quot;&gt;...&lt;/font&gt;&lt;font&gt;(std_in)&lt;/font&gt;" style="shape=partialRectangle;html=1;whiteSpace=wrap;connectable=0;strokeColor=inherit;overflow=hidden;fillColor=none;top=0;left=0;bottom=0;right=0;pointerEvents=1;fontSize=16;rowspan=1;colspan=3;" vertex="1" parent="hgz1I2AFEg-eC-I6rhA0-92">
          <mxGeometry width="200" height="40" as="geometry">
            <mxRectangle width="67" height="40" as="alternateBounds" />
          </mxGeometry>
        </mxCell>
        <mxCell id="hgz1I2AFEg-eC-I6rhA0-94" value="" style="shape=partialRectangle;html=1;whiteSpace=wrap;connectable=0;strokeColor=inherit;overflow=hidden;fillColor=none;top=0;left=0;bottom=0;right=0;pointerEvents=1;fontSize=16;" vertex="1" visible="0" parent="hgz1I2AFEg-eC-I6rhA0-92">
          <mxGeometry x="67" width="66" height="40" as="geometry">
            <mxRectangle width="66" height="40" as="alternateBounds" />
          </mxGeometry>
        </mxCell>
        <mxCell id="hgz1I2AFEg-eC-I6rhA0-95" value="" style="shape=partialRectangle;html=1;whiteSpace=wrap;connectable=0;strokeColor=inherit;overflow=hidden;fillColor=none;top=0;left=0;bottom=0;right=0;pointerEvents=1;fontSize=16;" vertex="1" visible="0" parent="hgz1I2AFEg-eC-I6rhA0-92">
          <mxGeometry x="133" width="67" height="40" as="geometry">
            <mxRectangle width="67" height="40" as="alternateBounds" />
          </mxGeometry>
        </mxCell>
        <mxCell id="hgz1I2AFEg-eC-I6rhA0-100" value="" style="shape=table;startSize=0;container=1;collapsible=0;childLayout=tableLayout;fontSize=16;fillColor=#d5e8d4;strokeColor=#82b366;" vertex="1" parent="1">
          <mxGeometry x="520" y="120" width="200" height="80" as="geometry" />
        </mxCell>
        <mxCell id="hgz1I2AFEg-eC-I6rhA0-101" value="" style="shape=tableRow;horizontal=0;startSize=0;swimlaneHead=0;swimlaneBody=0;strokeColor=inherit;top=0;left=0;bottom=0;right=0;collapsible=0;dropTarget=0;fillColor=none;points=[[0,0.5],[1,0.5]];portConstraint=eastwest;fontSize=16;" vertex="1" parent="hgz1I2AFEg-eC-I6rhA0-100">
          <mxGeometry width="200" height="40" as="geometry" />
        </mxCell>
        <mxCell id="hgz1I2AFEg-eC-I6rhA0-102" value="文件表项(file_t)" style="shape=partialRectangle;html=1;whiteSpace=wrap;connectable=0;strokeColor=inherit;overflow=hidden;fillColor=none;top=0;left=0;bottom=0;right=0;pointerEvents=1;fontSize=16;rowspan=1;colspan=3;" vertex="1" parent="hgz1I2AFEg-eC-I6rhA0-101">
          <mxGeometry width="200" height="40" as="geometry">
            <mxRectangle width="67" height="40" as="alternateBounds" />
          </mxGeometry>
        </mxCell>
        <mxCell id="hgz1I2AFEg-eC-I6rhA0-103" value="" style="shape=partialRectangle;html=1;whiteSpace=wrap;connectable=0;strokeColor=inherit;overflow=hidden;fillColor=none;top=0;left=0;bottom=0;right=0;pointerEvents=1;fontSize=16;" vertex="1" visible="0" parent="hgz1I2AFEg-eC-I6rhA0-101">
          <mxGeometry x="67" width="66" height="40" as="geometry">
            <mxRectangle width="66" height="40" as="alternateBounds" />
          </mxGeometry>
        </mxCell>
        <mxCell id="hgz1I2AFEg-eC-I6rhA0-104" value="" style="shape=partialRectangle;html=1;whiteSpace=wrap;connectable=0;strokeColor=inherit;overflow=hidden;fillColor=none;top=0;left=0;bottom=0;right=0;pointerEvents=1;fontSize=16;" vertex="1" visible="0" parent="hgz1I2AFEg-eC-I6rhA0-101">
          <mxGeometry x="133" width="67" height="40" as="geometry">
            <mxRectangle width="67" height="40" as="alternateBounds" />
          </mxGeometry>
        </mxCell>
        <mxCell id="hgz1I2AFEg-eC-I6rhA0-105" value="" style="shape=tableRow;horizontal=0;startSize=0;swimlaneHead=0;swimlaneBody=0;strokeColor=inherit;top=0;left=0;bottom=0;right=0;collapsible=0;dropTarget=0;fillColor=none;points=[[0,0.5],[1,0.5]];portConstraint=eastwest;fontSize=16;" vertex="1" parent="hgz1I2AFEg-eC-I6rhA0-100">
          <mxGeometry y="40" width="200" height="40" as="geometry" />
        </mxCell>
        <mxCell id="hgz1I2AFEg-eC-I6rhA0-106" value="&lt;font style=&quot;font-size: 20px;&quot;&gt;...&lt;/font&gt;&lt;font&gt;(std_out)&lt;/font&gt;" style="shape=partialRectangle;html=1;whiteSpace=wrap;connectable=0;strokeColor=inherit;overflow=hidden;fillColor=none;top=0;left=0;bottom=0;right=0;pointerEvents=1;fontSize=16;rowspan=1;colspan=3;" vertex="1" parent="hgz1I2AFEg-eC-I6rhA0-105">
          <mxGeometry width="200" height="40" as="geometry">
            <mxRectangle width="67" height="40" as="alternateBounds" />
          </mxGeometry>
        </mxCell>
        <mxCell id="hgz1I2AFEg-eC-I6rhA0-107" value="" style="shape=partialRectangle;html=1;whiteSpace=wrap;connectable=0;strokeColor=inherit;overflow=hidden;fillColor=none;top=0;left=0;bottom=0;right=0;pointerEvents=1;fontSize=16;" vertex="1" visible="0" parent="hgz1I2AFEg-eC-I6rhA0-105">
          <mxGeometry x="67" width="66" height="40" as="geometry">
            <mxRectangle width="66" height="40" as="alternateBounds" />
          </mxGeometry>
        </mxCell>
        <mxCell id="hgz1I2AFEg-eC-I6rhA0-108" value="" style="shape=partialRectangle;html=1;whiteSpace=wrap;connectable=0;strokeColor=inherit;overflow=hidden;fillColor=none;top=0;left=0;bottom=0;right=0;pointerEvents=1;fontSize=16;" vertex="1" visible="0" parent="hgz1I2AFEg-eC-I6rhA0-105">
          <mxGeometry x="133" width="67" height="40" as="geometry">
            <mxRectangle width="67" height="40" as="alternateBounds" />
          </mxGeometry>
        </mxCell>
        <mxCell id="hgz1I2AFEg-eC-I6rhA0-109" value="" style="shape=table;startSize=0;container=1;collapsible=0;childLayout=tableLayout;fontSize=16;fillColor=#ffe6cc;strokeColor=#d79b00;" vertex="1" parent="1">
          <mxGeometry x="800" y="-10" width="200" height="80" as="geometry" />
        </mxCell>
        <mxCell id="hgz1I2AFEg-eC-I6rhA0-110" value="" style="shape=tableRow;horizontal=0;startSize=0;swimlaneHead=0;swimlaneBody=0;strokeColor=inherit;top=0;left=0;bottom=0;right=0;collapsible=0;dropTarget=0;fillColor=none;points=[[0,0.5],[1,0.5]];portConstraint=eastwest;fontSize=16;" vertex="1" parent="hgz1I2AFEg-eC-I6rhA0-109">
          <mxGeometry width="200" height="40" as="geometry" />
        </mxCell>
        <mxCell id="hgz1I2AFEg-eC-I6rhA0-111" value="i节点代理(inode_t)" style="shape=partialRectangle;html=1;whiteSpace=wrap;connectable=0;strokeColor=inherit;overflow=hidden;fillColor=none;top=0;left=0;bottom=0;right=0;pointerEvents=1;fontSize=16;rowspan=1;colspan=3;" vertex="1" parent="hgz1I2AFEg-eC-I6rhA0-110">
          <mxGeometry width="200" height="40" as="geometry">
            <mxRectangle width="67" height="40" as="alternateBounds" />
          </mxGeometry>
        </mxCell>
        <mxCell id="hgz1I2AFEg-eC-I6rhA0-112" value="" style="shape=partialRectangle;html=1;whiteSpace=wrap;connectable=0;strokeColor=inherit;overflow=hidden;fillColor=none;top=0;left=0;bottom=0;right=0;pointerEvents=1;fontSize=16;" vertex="1" visible="0" parent="hgz1I2AFEg-eC-I6rhA0-110">
          <mxGeometry x="67" width="66" height="40" as="geometry">
            <mxRectangle width="66" height="40" as="alternateBounds" />
          </mxGeometry>
        </mxCell>
        <mxCell id="hgz1I2AFEg-eC-I6rhA0-113" value="" style="shape=partialRectangle;html=1;whiteSpace=wrap;connectable=0;strokeColor=inherit;overflow=hidden;fillColor=none;top=0;left=0;bottom=0;right=0;pointerEvents=1;fontSize=16;" vertex="1" visible="0" parent="hgz1I2AFEg-eC-I6rhA0-110">
          <mxGeometry x="133" width="67" height="40" as="geometry">
            <mxRectangle width="67" height="40" as="alternateBounds" />
          </mxGeometry>
        </mxCell>
        <mxCell id="hgz1I2AFEg-eC-I6rhA0-114" value="" style="shape=tableRow;horizontal=0;startSize=0;swimlaneHead=0;swimlaneBody=0;strokeColor=inherit;top=0;left=0;bottom=0;right=0;collapsible=0;dropTarget=0;fillColor=none;points=[[0,0.5],[1,0.5]];portConstraint=eastwest;fontSize=16;" vertex="1" parent="hgz1I2AFEg-eC-I6rhA0-109">
          <mxGeometry y="40" width="200" height="40" as="geometry" />
        </mxCell>
        <mxCell id="hgz1I2AFEg-eC-I6rhA0-115" value="&lt;font style=&quot;font-size: 20px;&quot;&gt;...&lt;/font&gt;" style="shape=partialRectangle;html=1;whiteSpace=wrap;connectable=0;strokeColor=inherit;overflow=hidden;fillColor=none;top=0;left=0;bottom=0;right=0;pointerEvents=1;fontSize=16;rowspan=1;colspan=3;" vertex="1" parent="hgz1I2AFEg-eC-I6rhA0-114">
          <mxGeometry width="200" height="40" as="geometry">
            <mxRectangle width="67" height="40" as="alternateBounds" />
          </mxGeometry>
        </mxCell>
        <mxCell id="hgz1I2AFEg-eC-I6rhA0-116" value="" style="shape=partialRectangle;html=1;whiteSpace=wrap;connectable=0;strokeColor=inherit;overflow=hidden;fillColor=none;top=0;left=0;bottom=0;right=0;pointerEvents=1;fontSize=16;" vertex="1" visible="0" parent="hgz1I2AFEg-eC-I6rhA0-114">
          <mxGeometry x="67" width="66" height="40" as="geometry">
            <mxRectangle width="66" height="40" as="alternateBounds" />
          </mxGeometry>
        </mxCell>
        <mxCell id="hgz1I2AFEg-eC-I6rhA0-117" value="" style="shape=partialRectangle;html=1;whiteSpace=wrap;connectable=0;strokeColor=inherit;overflow=hidden;fillColor=none;top=0;left=0;bottom=0;right=0;pointerEvents=1;fontSize=16;" vertex="1" visible="0" parent="hgz1I2AFEg-eC-I6rhA0-114">
          <mxGeometry x="133" width="67" height="40" as="geometry">
            <mxRectangle width="67" height="40" as="alternateBounds" />
          </mxGeometry>
        </mxCell>
        <mxCell id="hgz1I2AFEg-eC-I6rhA0-118" value="" style="shape=table;startSize=0;container=1;collapsible=0;childLayout=tableLayout;fontSize=16;fillColor=#ffe6cc;strokeColor=#d79b00;" vertex="1" parent="1">
          <mxGeometry x="800" y="120" width="200" height="80" as="geometry" />
        </mxCell>
        <mxCell id="hgz1I2AFEg-eC-I6rhA0-119" value="" style="shape=tableRow;horizontal=0;startSize=0;swimlaneHead=0;swimlaneBody=0;strokeColor=inherit;top=0;left=0;bottom=0;right=0;collapsible=0;dropTarget=0;fillColor=none;points=[[0,0.5],[1,0.5]];portConstraint=eastwest;fontSize=16;" vertex="1" parent="hgz1I2AFEg-eC-I6rhA0-118">
          <mxGeometry width="200" height="40" as="geometry" />
        </mxCell>
        <mxCell id="hgz1I2AFEg-eC-I6rhA0-120" value="i节点代理(inode_t)" style="shape=partialRectangle;html=1;whiteSpace=wrap;connectable=0;strokeColor=inherit;overflow=hidden;fillColor=none;top=0;left=0;bottom=0;right=0;pointerEvents=1;fontSize=16;rowspan=1;colspan=3;" vertex="1" parent="hgz1I2AFEg-eC-I6rhA0-119">
          <mxGeometry width="200" height="40" as="geometry">
            <mxRectangle width="67" height="40" as="alternateBounds" />
          </mxGeometry>
        </mxCell>
        <mxCell id="hgz1I2AFEg-eC-I6rhA0-121" value="" style="shape=partialRectangle;html=1;whiteSpace=wrap;connectable=0;strokeColor=inherit;overflow=hidden;fillColor=none;top=0;left=0;bottom=0;right=0;pointerEvents=1;fontSize=16;" vertex="1" visible="0" parent="hgz1I2AFEg-eC-I6rhA0-119">
          <mxGeometry x="67" width="66" height="40" as="geometry">
            <mxRectangle width="66" height="40" as="alternateBounds" />
          </mxGeometry>
        </mxCell>
        <mxCell id="hgz1I2AFEg-eC-I6rhA0-122" value="" style="shape=partialRectangle;html=1;whiteSpace=wrap;connectable=0;strokeColor=inherit;overflow=hidden;fillColor=none;top=0;left=0;bottom=0;right=0;pointerEvents=1;fontSize=16;" vertex="1" visible="0" parent="hgz1I2AFEg-eC-I6rhA0-119">
          <mxGeometry x="133" width="67" height="40" as="geometry">
            <mxRectangle width="67" height="40" as="alternateBounds" />
          </mxGeometry>
        </mxCell>
        <mxCell id="hgz1I2AFEg-eC-I6rhA0-123" value="" style="shape=tableRow;horizontal=0;startSize=0;swimlaneHead=0;swimlaneBody=0;strokeColor=inherit;top=0;left=0;bottom=0;right=0;collapsible=0;dropTarget=0;fillColor=none;points=[[0,0.5],[1,0.5]];portConstraint=eastwest;fontSize=16;" vertex="1" parent="hgz1I2AFEg-eC-I6rhA0-118">
          <mxGeometry y="40" width="200" height="40" as="geometry" />
        </mxCell>
        <mxCell id="hgz1I2AFEg-eC-I6rhA0-124" value="&lt;font style=&quot;font-size: 20px;&quot;&gt;...&lt;/font&gt;" style="shape=partialRectangle;html=1;whiteSpace=wrap;connectable=0;strokeColor=inherit;overflow=hidden;fillColor=none;top=0;left=0;bottom=0;right=0;pointerEvents=1;fontSize=16;rowspan=1;colspan=3;" vertex="1" parent="hgz1I2AFEg-eC-I6rhA0-123">
          <mxGeometry width="200" height="40" as="geometry">
            <mxRectangle width="67" height="40" as="alternateBounds" />
          </mxGeometry>
        </mxCell>
        <mxCell id="hgz1I2AFEg-eC-I6rhA0-125" value="" style="shape=partialRectangle;html=1;whiteSpace=wrap;connectable=0;strokeColor=inherit;overflow=hidden;fillColor=none;top=0;left=0;bottom=0;right=0;pointerEvents=1;fontSize=16;" vertex="1" visible="0" parent="hgz1I2AFEg-eC-I6rhA0-123">
          <mxGeometry x="67" width="66" height="40" as="geometry">
            <mxRectangle width="66" height="40" as="alternateBounds" />
          </mxGeometry>
        </mxCell>
        <mxCell id="hgz1I2AFEg-eC-I6rhA0-126" value="" style="shape=partialRectangle;html=1;whiteSpace=wrap;connectable=0;strokeColor=inherit;overflow=hidden;fillColor=none;top=0;left=0;bottom=0;right=0;pointerEvents=1;fontSize=16;" vertex="1" visible="0" parent="hgz1I2AFEg-eC-I6rhA0-123">
          <mxGeometry x="133" width="67" height="40" as="geometry">
            <mxRectangle width="67" height="40" as="alternateBounds" />
          </mxGeometry>
        </mxCell>
        <mxCell id="hgz1I2AFEg-eC-I6rhA0-127" value="" style="endArrow=classic;html=1;rounded=0;exitX=1;exitY=0.5;exitDx=0;exitDy=0;entryX=0;entryY=0.5;entryDx=0;entryDy=0;" edge="1" parent="1" source="hgz1I2AFEg-eC-I6rhA0-92" target="hgz1I2AFEg-eC-I6rhA0-114">
          <mxGeometry width="50" height="50" relative="1" as="geometry">
            <mxPoint x="690" y="260" as="sourcePoint" />
            <mxPoint x="740" y="210" as="targetPoint" />
          </mxGeometry>
        </mxCell>
        <mxCell id="hgz1I2AFEg-eC-I6rhA0-128" value="" style="endArrow=classic;html=1;rounded=0;exitX=1;exitY=0.5;exitDx=0;exitDy=0;entryX=0;entryY=0.5;entryDx=0;entryDy=0;" edge="1" parent="1" source="hgz1I2AFEg-eC-I6rhA0-105" target="hgz1I2AFEg-eC-I6rhA0-123">
          <mxGeometry width="50" height="50" relative="1" as="geometry">
            <mxPoint x="830" y="70" as="sourcePoint" />
            <mxPoint x="910" y="70" as="targetPoint" />
          </mxGeometry>
        </mxCell>
        <mxCell id="hgz1I2AFEg-eC-I6rhA0-129" value="" style="curved=1;endArrow=classic;html=1;rounded=0;exitX=1;exitY=0.5;exitDx=0;exitDy=0;" edge="1" parent="1" source="hgz1I2AFEg-eC-I6rhA0-114">
          <mxGeometry width="50" height="50" relative="1" as="geometry">
            <mxPoint x="1020" y="50" as="sourcePoint" />
            <mxPoint x="1080" y="50" as="targetPoint" />
            <Array as="points">
              <mxPoint x="1040" y="70" />
            </Array>
          </mxGeometry>
        </mxCell>
        <mxCell id="hgz1I2AFEg-eC-I6rhA0-130" value="..." style="text;html=1;align=center;verticalAlign=middle;whiteSpace=wrap;rounded=0;fontSize=20;" vertex="1" parent="1">
          <mxGeometry x="1080" y="15" width="60" height="30" as="geometry" />
        </mxCell>
        <mxCell id="hgz1I2AFEg-eC-I6rhA0-131" value="" style="curved=1;endArrow=classic;html=1;rounded=0;exitX=1;exitY=0.5;exitDx=0;exitDy=0;entryX=0;entryY=0.75;entryDx=0;entryDy=0;" edge="1" parent="1" source="hgz1I2AFEg-eC-I6rhA0-123" target="hgz1I2AFEg-eC-I6rhA0-132">
          <mxGeometry width="50" height="50" relative="1" as="geometry">
            <mxPoint x="1020" y="180" as="sourcePoint" />
            <mxPoint x="1080" y="180" as="targetPoint" />
            <Array as="points">
              <mxPoint x="1040" y="200" />
            </Array>
          </mxGeometry>
        </mxCell>
        <mxCell id="hgz1I2AFEg-eC-I6rhA0-132" value="..." style="text;html=1;align=center;verticalAlign=middle;whiteSpace=wrap;rounded=0;fontSize=20;" vertex="1" parent="1">
          <mxGeometry x="1080" y="145" width="60" height="30" as="geometry" />
        </mxCell>
        <mxCell id="hgz1I2AFEg-eC-I6rhA0-134" value="" style="shape=table;startSize=0;container=1;collapsible=0;childLayout=tableLayout;fontSize=16;fillColor=#d5e8d4;strokeColor=#82b366;" vertex="1" parent="1">
          <mxGeometry x="520" y="250" width="200" height="80" as="geometry" />
        </mxCell>
        <mxCell id="hgz1I2AFEg-eC-I6rhA0-135" value="" style="shape=tableRow;horizontal=0;startSize=0;swimlaneHead=0;swimlaneBody=0;strokeColor=inherit;top=0;left=0;bottom=0;right=0;collapsible=0;dropTarget=0;fillColor=none;points=[[0,0.5],[1,0.5]];portConstraint=eastwest;fontSize=16;" vertex="1" parent="hgz1I2AFEg-eC-I6rhA0-134">
          <mxGeometry width="200" height="40" as="geometry" />
        </mxCell>
        <mxCell id="hgz1I2AFEg-eC-I6rhA0-136" value="文件表项(file_t)" style="shape=partialRectangle;html=1;whiteSpace=wrap;connectable=0;strokeColor=inherit;overflow=hidden;fillColor=none;top=0;left=0;bottom=0;right=0;pointerEvents=1;fontSize=16;rowspan=1;colspan=3;" vertex="1" parent="hgz1I2AFEg-eC-I6rhA0-135">
          <mxGeometry width="200" height="40" as="geometry">
            <mxRectangle width="67" height="40" as="alternateBounds" />
          </mxGeometry>
        </mxCell>
        <mxCell id="hgz1I2AFEg-eC-I6rhA0-137" value="" style="shape=partialRectangle;html=1;whiteSpace=wrap;connectable=0;strokeColor=inherit;overflow=hidden;fillColor=none;top=0;left=0;bottom=0;right=0;pointerEvents=1;fontSize=16;" vertex="1" visible="0" parent="hgz1I2AFEg-eC-I6rhA0-135">
          <mxGeometry x="67" width="66" height="40" as="geometry">
            <mxRectangle width="66" height="40" as="alternateBounds" />
          </mxGeometry>
        </mxCell>
        <mxCell id="hgz1I2AFEg-eC-I6rhA0-138" value="" style="shape=partialRectangle;html=1;whiteSpace=wrap;connectable=0;strokeColor=inherit;overflow=hidden;fillColor=none;top=0;left=0;bottom=0;right=0;pointerEvents=1;fontSize=16;" vertex="1" visible="0" parent="hgz1I2AFEg-eC-I6rhA0-135">
          <mxGeometry x="133" width="67" height="40" as="geometry">
            <mxRectangle width="67" height="40" as="alternateBounds" />
          </mxGeometry>
        </mxCell>
        <mxCell id="hgz1I2AFEg-eC-I6rhA0-139" value="" style="shape=tableRow;horizontal=0;startSize=0;swimlaneHead=0;swimlaneBody=0;strokeColor=inherit;top=0;left=0;bottom=0;right=0;collapsible=0;dropTarget=0;fillColor=none;points=[[0,0.5],[1,0.5]];portConstraint=eastwest;fontSize=16;" vertex="1" parent="hgz1I2AFEg-eC-I6rhA0-134">
          <mxGeometry y="40" width="200" height="40" as="geometry" />
        </mxCell>
        <mxCell id="hgz1I2AFEg-eC-I6rhA0-140" value="&lt;font style=&quot;font-size: 20px;&quot;&gt;...&lt;/font&gt;&lt;font&gt;(std_error)&lt;/font&gt;" style="shape=partialRectangle;html=1;whiteSpace=wrap;connectable=0;strokeColor=inherit;overflow=hidden;fillColor=none;top=0;left=0;bottom=0;right=0;pointerEvents=1;fontSize=16;rowspan=1;colspan=3;" vertex="1" parent="hgz1I2AFEg-eC-I6rhA0-139">
          <mxGeometry width="200" height="40" as="geometry">
            <mxRectangle width="67" height="40" as="alternateBounds" />
          </mxGeometry>
        </mxCell>
        <mxCell id="hgz1I2AFEg-eC-I6rhA0-141" value="" style="shape=partialRectangle;html=1;whiteSpace=wrap;connectable=0;strokeColor=inherit;overflow=hidden;fillColor=none;top=0;left=0;bottom=0;right=0;pointerEvents=1;fontSize=16;" vertex="1" visible="0" parent="hgz1I2AFEg-eC-I6rhA0-139">
          <mxGeometry x="67" width="66" height="40" as="geometry">
            <mxRectangle width="66" height="40" as="alternateBounds" />
          </mxGeometry>
        </mxCell>
        <mxCell id="hgz1I2AFEg-eC-I6rhA0-142" value="" style="shape=partialRectangle;html=1;whiteSpace=wrap;connectable=0;strokeColor=inherit;overflow=hidden;fillColor=none;top=0;left=0;bottom=0;right=0;pointerEvents=1;fontSize=16;" vertex="1" visible="0" parent="hgz1I2AFEg-eC-I6rhA0-139">
          <mxGeometry x="133" width="67" height="40" as="geometry">
            <mxRectangle width="67" height="40" as="alternateBounds" />
          </mxGeometry>
        </mxCell>
        <mxCell id="hgz1I2AFEg-eC-I6rhA0-143" value="" style="shape=table;startSize=0;container=1;collapsible=0;childLayout=tableLayout;fontSize=16;fillColor=#ffe6cc;strokeColor=#d79b00;" vertex="1" parent="1">
          <mxGeometry x="800" y="250" width="200" height="80" as="geometry" />
        </mxCell>
        <mxCell id="hgz1I2AFEg-eC-I6rhA0-144" value="" style="shape=tableRow;horizontal=0;startSize=0;swimlaneHead=0;swimlaneBody=0;strokeColor=inherit;top=0;left=0;bottom=0;right=0;collapsible=0;dropTarget=0;fillColor=none;points=[[0,0.5],[1,0.5]];portConstraint=eastwest;fontSize=16;" vertex="1" parent="hgz1I2AFEg-eC-I6rhA0-143">
          <mxGeometry width="200" height="40" as="geometry" />
        </mxCell>
        <mxCell id="hgz1I2AFEg-eC-I6rhA0-145" value="i节点代理(inode_t)" style="shape=partialRectangle;html=1;whiteSpace=wrap;connectable=0;strokeColor=inherit;overflow=hidden;fillColor=none;top=0;left=0;bottom=0;right=0;pointerEvents=1;fontSize=16;rowspan=1;colspan=3;" vertex="1" parent="hgz1I2AFEg-eC-I6rhA0-144">
          <mxGeometry width="200" height="40" as="geometry">
            <mxRectangle width="67" height="40" as="alternateBounds" />
          </mxGeometry>
        </mxCell>
        <mxCell id="hgz1I2AFEg-eC-I6rhA0-146" value="" style="shape=partialRectangle;html=1;whiteSpace=wrap;connectable=0;strokeColor=inherit;overflow=hidden;fillColor=none;top=0;left=0;bottom=0;right=0;pointerEvents=1;fontSize=16;" vertex="1" visible="0" parent="hgz1I2AFEg-eC-I6rhA0-144">
          <mxGeometry x="67" width="66" height="40" as="geometry">
            <mxRectangle width="66" height="40" as="alternateBounds" />
          </mxGeometry>
        </mxCell>
        <mxCell id="hgz1I2AFEg-eC-I6rhA0-147" value="" style="shape=partialRectangle;html=1;whiteSpace=wrap;connectable=0;strokeColor=inherit;overflow=hidden;fillColor=none;top=0;left=0;bottom=0;right=0;pointerEvents=1;fontSize=16;" vertex="1" visible="0" parent="hgz1I2AFEg-eC-I6rhA0-144">
          <mxGeometry x="133" width="67" height="40" as="geometry">
            <mxRectangle width="67" height="40" as="alternateBounds" />
          </mxGeometry>
        </mxCell>
        <mxCell id="hgz1I2AFEg-eC-I6rhA0-148" value="" style="shape=tableRow;horizontal=0;startSize=0;swimlaneHead=0;swimlaneBody=0;strokeColor=inherit;top=0;left=0;bottom=0;right=0;collapsible=0;dropTarget=0;fillColor=none;points=[[0,0.5],[1,0.5]];portConstraint=eastwest;fontSize=16;" vertex="1" parent="hgz1I2AFEg-eC-I6rhA0-143">
          <mxGeometry y="40" width="200" height="40" as="geometry" />
        </mxCell>
        <mxCell id="hgz1I2AFEg-eC-I6rhA0-149" value="&lt;font style=&quot;font-size: 20px;&quot;&gt;...&lt;/font&gt;" style="shape=partialRectangle;html=1;whiteSpace=wrap;connectable=0;strokeColor=inherit;overflow=hidden;fillColor=none;top=0;left=0;bottom=0;right=0;pointerEvents=1;fontSize=16;rowspan=1;colspan=3;" vertex="1" parent="hgz1I2AFEg-eC-I6rhA0-148">
          <mxGeometry width="200" height="40" as="geometry">
            <mxRectangle width="67" height="40" as="alternateBounds" />
          </mxGeometry>
        </mxCell>
        <mxCell id="hgz1I2AFEg-eC-I6rhA0-150" value="" style="shape=partialRectangle;html=1;whiteSpace=wrap;connectable=0;strokeColor=inherit;overflow=hidden;fillColor=none;top=0;left=0;bottom=0;right=0;pointerEvents=1;fontSize=16;" vertex="1" visible="0" parent="hgz1I2AFEg-eC-I6rhA0-148">
          <mxGeometry x="67" width="66" height="40" as="geometry">
            <mxRectangle width="66" height="40" as="alternateBounds" />
          </mxGeometry>
        </mxCell>
        <mxCell id="hgz1I2AFEg-eC-I6rhA0-151" value="" style="shape=partialRectangle;html=1;whiteSpace=wrap;connectable=0;strokeColor=inherit;overflow=hidden;fillColor=none;top=0;left=0;bottom=0;right=0;pointerEvents=1;fontSize=16;" vertex="1" visible="0" parent="hgz1I2AFEg-eC-I6rhA0-148">
          <mxGeometry x="133" width="67" height="40" as="geometry">
            <mxRectangle width="67" height="40" as="alternateBounds" />
          </mxGeometry>
        </mxCell>
        <mxCell id="hgz1I2AFEg-eC-I6rhA0-152" value="" style="endArrow=classic;html=1;rounded=0;exitX=1;exitY=0.5;exitDx=0;exitDy=0;entryX=0;entryY=0.5;entryDx=0;entryDy=0;" edge="1" parent="1" source="hgz1I2AFEg-eC-I6rhA0-139" target="hgz1I2AFEg-eC-I6rhA0-148">
          <mxGeometry width="50" height="50" relative="1" as="geometry">
            <mxPoint x="830" y="200" as="sourcePoint" />
            <mxPoint x="910" y="200" as="targetPoint" />
          </mxGeometry>
        </mxCell>
        <mxCell id="hgz1I2AFEg-eC-I6rhA0-153" value="" style="curved=1;endArrow=classic;html=1;rounded=0;exitX=1;exitY=0.5;exitDx=0;exitDy=0;entryX=0;entryY=0.75;entryDx=0;entryDy=0;" edge="1" parent="1" source="hgz1I2AFEg-eC-I6rhA0-148" target="hgz1I2AFEg-eC-I6rhA0-154">
          <mxGeometry width="50" height="50" relative="1" as="geometry">
            <mxPoint x="1020" y="310" as="sourcePoint" />
            <mxPoint x="1080" y="310" as="targetPoint" />
            <Array as="points">
              <mxPoint x="1040" y="330" />
            </Array>
          </mxGeometry>
        </mxCell>
        <mxCell id="hgz1I2AFEg-eC-I6rhA0-154" value="..." style="text;html=1;align=center;verticalAlign=middle;whiteSpace=wrap;rounded=0;fontSize=20;" vertex="1" parent="1">
          <mxGeometry x="1080" y="275" width="60" height="30" as="geometry" />
        </mxCell>
        <mxCell id="hgz1I2AFEg-eC-I6rhA0-155" value="" style="endArrow=classic;html=1;rounded=0;exitX=1;exitY=0.5;exitDx=0;exitDy=0;entryX=0;entryY=0.5;entryDx=0;entryDy=0;" edge="1" parent="1" source="hgz1I2AFEg-eC-I6rhA0-6" target="hgz1I2AFEg-eC-I6rhA0-88">
          <mxGeometry width="50" height="50" relative="1" as="geometry">
            <mxPoint x="710" y="310" as="sourcePoint" />
            <mxPoint x="760" y="260" as="targetPoint" />
          </mxGeometry>
        </mxCell>
        <mxCell id="hgz1I2AFEg-eC-I6rhA0-156" value="" style="endArrow=classic;html=1;rounded=0;exitX=1;exitY=0.5;exitDx=0;exitDy=0;entryX=0;entryY=0.5;entryDx=0;entryDy=0;" edge="1" parent="1" source="hgz1I2AFEg-eC-I6rhA0-10" target="hgz1I2AFEg-eC-I6rhA0-101">
          <mxGeometry width="50" height="50" relative="1" as="geometry">
            <mxPoint x="710" y="310" as="sourcePoint" />
            <mxPoint x="760" y="260" as="targetPoint" />
          </mxGeometry>
        </mxCell>
        <mxCell id="hgz1I2AFEg-eC-I6rhA0-157" value="" style="endArrow=classic;html=1;rounded=0;exitX=1;exitY=0.5;exitDx=0;exitDy=0;entryX=0;entryY=0.5;entryDx=0;entryDy=0;" edge="1" parent="1" source="hgz1I2AFEg-eC-I6rhA0-14" target="hgz1I2AFEg-eC-I6rhA0-135">
          <mxGeometry width="50" height="50" relative="1" as="geometry">
            <mxPoint x="710" y="310" as="sourcePoint" />
            <mxPoint x="760" y="260" as="targetPoint" />
          </mxGeometry>
        </mxCell>
        <mxCell id="hgz1I2AFEg-eC-I6rhA0-171" value="" style="shape=table;startSize=0;container=1;collapsible=0;childLayout=tableLayout;fontSize=16;fillColor=#fff2cc;strokeColor=#d6b656;" vertex="1" parent="1">
          <mxGeometry x="1120" y="640" width="200" height="80" as="geometry" />
        </mxCell>
        <mxCell id="hgz1I2AFEg-eC-I6rhA0-172" style="shape=tableRow;horizontal=0;startSize=0;swimlaneHead=0;swimlaneBody=0;strokeColor=inherit;top=0;left=0;bottom=0;right=0;collapsible=0;dropTarget=0;fillColor=none;points=[[0,0.5],[1,0.5]];portConstraint=eastwest;fontSize=16;" vertex="1" parent="hgz1I2AFEg-eC-I6rhA0-171">
          <mxGeometry width="200" height="20" as="geometry" />
        </mxCell>
        <mxCell id="hgz1I2AFEg-eC-I6rhA0-173" value="磁盘i节点1(minix_inode_t)" style="shape=partialRectangle;html=1;whiteSpace=wrap;connectable=0;strokeColor=#d6b656;overflow=hidden;fillColor=#fff2cc;top=0;left=0;bottom=0;right=0;pointerEvents=1;fontSize=16;rowspan=1;colspan=3;align=center;" vertex="1" parent="hgz1I2AFEg-eC-I6rhA0-172">
          <mxGeometry width="200" height="20" as="geometry">
            <mxRectangle width="69" height="20" as="alternateBounds" />
          </mxGeometry>
        </mxCell>
        <mxCell id="hgz1I2AFEg-eC-I6rhA0-174" style="shape=partialRectangle;html=1;whiteSpace=wrap;connectable=0;strokeColor=inherit;overflow=hidden;fillColor=none;top=0;left=0;bottom=0;right=0;pointerEvents=1;fontSize=16;" vertex="1" visible="0" parent="hgz1I2AFEg-eC-I6rhA0-172">
          <mxGeometry x="69" width="65" height="20" as="geometry">
            <mxRectangle width="65" height="20" as="alternateBounds" />
          </mxGeometry>
        </mxCell>
        <mxCell id="hgz1I2AFEg-eC-I6rhA0-175" style="shape=partialRectangle;html=1;whiteSpace=wrap;connectable=0;strokeColor=inherit;overflow=hidden;fillColor=none;top=0;left=0;bottom=0;right=0;pointerEvents=1;fontSize=16;" vertex="1" visible="0" parent="hgz1I2AFEg-eC-I6rhA0-172">
          <mxGeometry x="134" width="66" height="20" as="geometry">
            <mxRectangle width="66" height="20" as="alternateBounds" />
          </mxGeometry>
        </mxCell>
        <mxCell id="hgz1I2AFEg-eC-I6rhA0-207" style="shape=tableRow;horizontal=0;startSize=0;swimlaneHead=0;swimlaneBody=0;strokeColor=inherit;top=0;left=0;bottom=0;right=0;collapsible=0;dropTarget=0;fillColor=none;points=[[0,0.5],[1,0.5]];portConstraint=eastwest;fontSize=16;" vertex="1" parent="hgz1I2AFEg-eC-I6rhA0-171">
          <mxGeometry y="20" width="200" height="20" as="geometry" />
        </mxCell>
        <mxCell id="hgz1I2AFEg-eC-I6rhA0-208" value="nlinks" style="shape=partialRectangle;html=1;whiteSpace=wrap;connectable=0;strokeColor=inherit;overflow=hidden;fillColor=none;top=0;left=0;bottom=0;right=0;pointerEvents=1;fontSize=16;align=center;rowspan=1;colspan=3;" vertex="1" parent="hgz1I2AFEg-eC-I6rhA0-207">
          <mxGeometry width="200" height="20" as="geometry">
            <mxRectangle width="69" height="20" as="alternateBounds" />
          </mxGeometry>
        </mxCell>
        <mxCell id="hgz1I2AFEg-eC-I6rhA0-209" style="shape=partialRectangle;html=1;whiteSpace=wrap;connectable=0;strokeColor=inherit;overflow=hidden;fillColor=none;top=0;left=0;bottom=0;right=0;pointerEvents=1;fontSize=16;" vertex="1" visible="0" parent="hgz1I2AFEg-eC-I6rhA0-207">
          <mxGeometry x="69" width="65" height="20" as="geometry">
            <mxRectangle width="65" height="20" as="alternateBounds" />
          </mxGeometry>
        </mxCell>
        <mxCell id="hgz1I2AFEg-eC-I6rhA0-210" style="shape=partialRectangle;html=1;whiteSpace=wrap;connectable=0;strokeColor=inherit;overflow=hidden;fillColor=none;top=0;left=0;bottom=0;right=0;pointerEvents=1;fontSize=16;" vertex="1" visible="0" parent="hgz1I2AFEg-eC-I6rhA0-207">
          <mxGeometry x="134" width="66" height="20" as="geometry">
            <mxRectangle width="66" height="20" as="alternateBounds" />
          </mxGeometry>
        </mxCell>
        <mxCell id="hgz1I2AFEg-eC-I6rhA0-176" value="" style="shape=tableRow;horizontal=0;startSize=0;swimlaneHead=0;swimlaneBody=0;strokeColor=inherit;top=0;left=0;bottom=0;right=0;collapsible=0;dropTarget=0;fillColor=none;points=[[0,0.5],[1,0.5]];portConstraint=eastwest;fontSize=16;" vertex="1" parent="hgz1I2AFEg-eC-I6rhA0-171">
          <mxGeometry y="40" width="200" height="20" as="geometry" />
        </mxCell>
        <mxCell id="hgz1I2AFEg-eC-I6rhA0-177" value="..." style="shape=partialRectangle;html=1;whiteSpace=wrap;connectable=0;strokeColor=inherit;overflow=hidden;fillColor=none;top=0;left=0;bottom=0;right=0;pointerEvents=1;fontSize=16;rowspan=1;colspan=3;" vertex="1" parent="hgz1I2AFEg-eC-I6rhA0-176">
          <mxGeometry width="200" height="20" as="geometry">
            <mxRectangle width="69" height="20" as="alternateBounds" />
          </mxGeometry>
        </mxCell>
        <mxCell id="hgz1I2AFEg-eC-I6rhA0-178" value="" style="shape=partialRectangle;html=1;whiteSpace=wrap;connectable=0;strokeColor=inherit;overflow=hidden;fillColor=none;top=0;left=0;bottom=0;right=0;pointerEvents=1;fontSize=16;" vertex="1" visible="0" parent="hgz1I2AFEg-eC-I6rhA0-176">
          <mxGeometry x="69" width="65" height="20" as="geometry">
            <mxRectangle width="65" height="20" as="alternateBounds" />
          </mxGeometry>
        </mxCell>
        <mxCell id="hgz1I2AFEg-eC-I6rhA0-179" value="" style="shape=partialRectangle;html=1;whiteSpace=wrap;connectable=0;strokeColor=inherit;overflow=hidden;fillColor=none;top=0;left=0;bottom=0;right=0;pointerEvents=1;fontSize=16;" vertex="1" visible="0" parent="hgz1I2AFEg-eC-I6rhA0-176">
          <mxGeometry x="134" width="66" height="20" as="geometry">
            <mxRectangle width="66" height="20" as="alternateBounds" />
          </mxGeometry>
        </mxCell>
        <mxCell id="hgz1I2AFEg-eC-I6rhA0-196" style="shape=tableRow;horizontal=0;startSize=0;swimlaneHead=0;swimlaneBody=0;strokeColor=inherit;top=0;left=0;bottom=0;right=0;collapsible=0;dropTarget=0;fillColor=none;points=[[0,0.5],[1,0.5]];portConstraint=eastwest;fontSize=16;" vertex="1" parent="hgz1I2AFEg-eC-I6rhA0-171">
          <mxGeometry y="60" width="200" height="20" as="geometry" />
        </mxCell>
        <mxCell id="hgz1I2AFEg-eC-I6rhA0-197" value="zone" style="shape=partialRectangle;html=1;whiteSpace=wrap;connectable=0;strokeColor=inherit;overflow=hidden;fillColor=none;top=0;left=0;bottom=0;right=0;pointerEvents=1;fontSize=16;rowspan=1;colspan=3;" vertex="1" parent="hgz1I2AFEg-eC-I6rhA0-196">
          <mxGeometry width="200" height="20" as="geometry">
            <mxRectangle width="69" height="20" as="alternateBounds" />
          </mxGeometry>
        </mxCell>
        <mxCell id="hgz1I2AFEg-eC-I6rhA0-198" style="shape=partialRectangle;html=1;whiteSpace=wrap;connectable=0;strokeColor=inherit;overflow=hidden;fillColor=none;top=0;left=0;bottom=0;right=0;pointerEvents=1;fontSize=16;" vertex="1" visible="0" parent="hgz1I2AFEg-eC-I6rhA0-196">
          <mxGeometry x="69" width="65" height="20" as="geometry">
            <mxRectangle width="65" height="20" as="alternateBounds" />
          </mxGeometry>
        </mxCell>
        <mxCell id="hgz1I2AFEg-eC-I6rhA0-199" style="shape=partialRectangle;html=1;whiteSpace=wrap;connectable=0;strokeColor=inherit;overflow=hidden;fillColor=none;top=0;left=0;bottom=0;right=0;pointerEvents=1;fontSize=16;" vertex="1" visible="0" parent="hgz1I2AFEg-eC-I6rhA0-196">
          <mxGeometry x="134" width="66" height="20" as="geometry">
            <mxRectangle width="66" height="20" as="alternateBounds" />
          </mxGeometry>
        </mxCell>
        <mxCell id="hgz1I2AFEg-eC-I6rhA0-200" value="磁盘i节点2" style="rounded=0;whiteSpace=wrap;html=1;fillColor=#fff2cc;strokeColor=#d6b656;fontSize=16;" vertex="1" parent="1">
          <mxGeometry x="1120" y="720" width="200" height="80" as="geometry" />
        </mxCell>
        <mxCell id="hgz1I2AFEg-eC-I6rhA0-201" value="磁盘i节点0" style="rounded=0;whiteSpace=wrap;html=1;fillColor=#fff2cc;strokeColor=#d6b656;fontSize=16;" vertex="1" parent="1">
          <mxGeometry x="1120" y="560" width="200" height="80" as="geometry" />
        </mxCell>
        <mxCell id="hgz1I2AFEg-eC-I6rhA0-202" value="..." style="rounded=0;whiteSpace=wrap;html=1;fillColor=#fff2cc;strokeColor=#d6b656;fontSize=16;" vertex="1" parent="1">
          <mxGeometry x="1120" y="800" width="200" height="80" as="geometry" />
        </mxCell>
        <mxCell id="hgz1I2AFEg-eC-I6rhA0-213" value="" style="endArrow=classic;html=1;rounded=0;entryX=0;entryY=0;entryDx=0;entryDy=0;exitX=1;exitY=0.5;exitDx=0;exitDy=0;" edge="1" parent="1" source="hgz1I2AFEg-eC-I6rhA0-61" target="hgz1I2AFEg-eC-I6rhA0-201">
          <mxGeometry width="50" height="50" relative="1" as="geometry">
            <mxPoint x="900" y="550" as="sourcePoint" />
            <mxPoint x="950" y="500" as="targetPoint" />
          </mxGeometry>
        </mxCell>
        <mxCell id="hgz1I2AFEg-eC-I6rhA0-214" value="" style="endArrow=classic;html=1;rounded=0;entryX=0.028;entryY=0.1;entryDx=0;entryDy=0;entryPerimeter=0;exitX=1;exitY=0.5;exitDx=0;exitDy=0;" edge="1" parent="1" source="hgz1I2AFEg-eC-I6rhA0-65" target="hgz1I2AFEg-eC-I6rhA0-172">
          <mxGeometry width="50" height="50" relative="1" as="geometry">
            <mxPoint x="900" y="550" as="sourcePoint" />
            <mxPoint x="950" y="500" as="targetPoint" />
          </mxGeometry>
        </mxCell>
        <mxCell id="hgz1I2AFEg-eC-I6rhA0-215" value="&lt;font style=&quot;font-size: 20px;&quot;&gt;磁盘块缓存&lt;/font&gt;" style="text;html=1;align=center;verticalAlign=middle;whiteSpace=wrap;rounded=0;" vertex="1" parent="1">
          <mxGeometry x="1120" y="510" width="200" height="30" as="geometry" />
        </mxCell>
      </root>
    </mxGraphModel>
  </diagram>
</mxfile>
